<svg width="24" height="24" viewBox="0 0 24 24" fill="none" xmlns="http://www.w3.org/2000/svg">
<path d="M18.8357 4.3192L19.2287 3.92619L18.7965 3.5768C16.9374 2.07407 14.572 1.17186 12 1.17186C6.02842 1.17186 1.17088 6.02953 1.17088 12.0013V12.0013C1.17112 14.573 2.07343 16.9383 3.57591 18.7972L3.9253 19.2295L4.31833 18.8365L18.8357 4.3192ZM4.7628 19.341L4.38923 19.7146L4.78278 20.067C6.69915 21.7833 9.22976 22.8299 12 22.8299C17.9715 22.8299 22.8291 17.9727 22.8291 12.0014C22.8291 9.23087 21.7825 6.70002 20.0661 4.78363L19.7137 4.39011L19.3401 4.76367L4.7628 19.341ZM0.5 12.0013C0.500023 5.66044 5.6592 0.500977 12 0.500977C18.3407 0.500977 23.5 5.66046 23.5001 12.0013C23.5001 18.3417 18.3407 23.5008 12 23.5008C5.65996 23.5008 0.500556 18.3416 0.5 12.0014V12.0013Z" fill="black" stroke="#49665C"/>
</svg>
