<svg width="18" height="18" viewBox="0 0 18 18" fill="none" xmlns="http://www.w3.org/2000/svg">
<path d="M12.75 2.25001C12.947 2.05303 13.1809 1.89677 13.4382 1.79017C13.6956 1.68356 13.9714 1.62869 14.25 1.62869C14.5286 1.62869 14.8044 1.68356 15.0618 1.79017C15.3192 1.89677 15.553 2.05303 15.75 2.25001C15.947 2.447 16.1033 2.68085 16.2099 2.93822C16.3165 3.19559 16.3713 3.47144 16.3713 3.75001C16.3713 4.02859 16.3165 4.30444 16.2099 4.56181C16.1033 4.81918 15.947 5.05303 15.75 5.25001L5.62502 15.375L1.50002 16.5L2.62502 12.375L12.75 2.25001Z" stroke="#FCFCFC" stroke-width="2" stroke-linecap="round" stroke-linejoin="round"/>
</svg>
