<svg width="24" height="24" viewBox="0 0 24 24" fill="none" xmlns="http://www.w3.org/2000/svg">
<g clip-path="url(#clip0_4070_2212)">
<mask id="path-1-inside-1_4070_2212" fill="white">
<path d="M17.1517 6.23235C16.9885 5.96227 16.6652 5.83391 16.3612 5.91869C16.0571 6.00347 15.8469 6.28032 15.8469 6.596C15.8469 7.45421 15.1487 8.15221 14.2907 8.15221C13.4324 8.15221 12.7344 7.45421 12.7344 6.596V0.703105C12.7344 0.418742 12.5631 0.162394 12.3003 0.053446C12.0375 -0.0553189 11.7351 0.00492295 11.534 0.205973C11.4553 0.284892 9.58009 2.1707 7.68055 5.02019C6.56049 6.70037 5.66657 8.367 5.02387 9.97375C4.20978 12.0092 3.79688 13.9579 3.79688 15.7656C3.79688 20.306 7.49085 24 12.0311 24C16.5716 24 20.2656 20.306 20.2656 15.7656C20.2656 12.8593 19.2179 9.65185 17.1517 6.23235V6.23235ZM12.0311 22.5938C8.2663 22.5938 5.20313 19.5306 5.20313 15.7656C5.20313 12.0595 7.17829 8.31335 8.83539 5.82311C9.73353 4.47344 10.6386 3.33598 11.328 2.52702V6.596C11.328 8.22948 12.657 9.55846 14.2905 9.55846C15.2891 9.55846 16.1741 9.06188 16.711 8.30254C18.1373 10.9885 18.8593 13.4938 18.8593 15.7656C18.8593 19.5306 15.7963 22.5938 12.0311 22.5938Z"/>
</mask>
<path d="M17.1517 6.23235C16.9885 5.96227 16.6652 5.83391 16.3612 5.91869C16.0571 6.00347 15.8469 6.28032 15.8469 6.596C15.8469 7.45421 15.1487 8.15221 14.2907 8.15221C13.4324 8.15221 12.7344 7.45421 12.7344 6.596V0.703105C12.7344 0.418742 12.5631 0.162394 12.3003 0.053446C12.0375 -0.0553189 11.7351 0.00492295 11.534 0.205973C11.4553 0.284892 9.58009 2.1707 7.68055 5.02019C6.56049 6.70037 5.66657 8.367 5.02387 9.97375C4.20978 12.0092 3.79688 13.9579 3.79688 15.7656C3.79688 20.306 7.49085 24 12.0311 24C16.5716 24 20.2656 20.306 20.2656 15.7656C20.2656 12.8593 19.2179 9.65185 17.1517 6.23235V6.23235ZM12.0311 22.5938C8.2663 22.5938 5.20313 19.5306 5.20313 15.7656C5.20313 12.0595 7.17829 8.31335 8.83539 5.82311C9.73353 4.47344 10.6386 3.33598 11.328 2.52702V6.596C11.328 8.22948 12.657 9.55846 14.2905 9.55846C15.2891 9.55846 16.1741 9.06188 16.711 8.30254C18.1373 10.9885 18.8593 13.4938 18.8593 15.7656C18.8593 19.5306 15.7963 22.5938 12.0311 22.5938Z" fill="#10221C"/>
<path d="M16.3612 5.91869L17.1668 8.80852L17.1672 8.80839L16.3612 5.91869ZM12.3003 0.053446L13.4493 -2.71778L13.4477 -2.71846L12.3003 0.053446ZM11.534 0.205973L9.41269 -1.91535L9.41022 -1.91288L11.534 0.205973ZM7.68055 5.02019L10.1767 6.68423L10.1767 6.68422L7.68055 5.02019ZM5.02387 9.97375L2.23844 8.85958L2.2384 8.85966L5.02387 9.97375ZM8.83539 5.82311L6.33784 4.16112L6.33783 4.16113L8.83539 5.82311ZM11.328 2.52702H14.328V-5.61852L9.04467 0.581167L11.328 2.52702ZM16.711 8.30254L19.3605 6.89549L17.0748 2.59134L14.2614 6.57064L16.711 8.30254ZM19.7195 4.68119C18.8601 3.25842 17.1572 2.58217 15.5552 3.02898L17.1672 8.80839C16.1731 9.08565 15.117 8.66612 14.5838 7.78351L19.7195 4.68119ZM15.5557 3.02886C13.9543 3.47524 12.8469 4.93376 12.8469 6.596H18.8469C18.8469 7.62688 18.1598 8.5317 17.1668 8.80852L15.5557 3.02886ZM12.8469 6.596C12.8469 5.79713 13.4921 5.15221 14.2907 5.15221V11.1522C16.8053 11.1522 18.8469 9.1113 18.8469 6.596H12.8469ZM14.2907 5.15221C15.0893 5.15221 15.7344 5.79736 15.7344 6.596H9.73445C9.73445 9.11107 11.7756 11.1522 14.2907 11.1522V5.15221ZM15.7344 6.596V0.703105H9.73445V6.596H15.7344ZM15.7344 0.703105C15.7344 -0.795688 14.8313 -2.14479 13.4493 -2.71778L11.1513 2.82467C10.2948 2.46957 9.73445 1.63317 9.73445 0.703105H15.7344ZM13.4477 -2.71846C12.0639 -3.29128 10.4714 -2.97408 9.41269 -1.91535L13.6553 2.32729C12.9987 2.98392 12.0112 3.18064 11.1529 2.82536L13.4477 -2.71846ZM9.41022 -1.91288C9.25975 -1.76206 7.23517 0.279723 5.18435 3.35616L10.1767 6.68422C11.925 4.06167 13.6508 2.33184 13.6578 2.32483L9.41022 -1.91288ZM5.18435 3.35615C3.96775 5.18115 2.96981 7.03114 2.23844 8.85958L7.8093 11.0879C8.36332 9.70285 9.15323 8.21958 10.1767 6.68423L5.18435 3.35615ZM2.2384 8.85966C1.31197 11.1759 0.796875 13.5045 0.796875 15.7656H6.79688C6.79688 14.4114 7.10758 12.8424 7.80933 11.0878L2.2384 8.85966ZM0.796875 15.7656C0.796875 21.9629 5.83395 27 12.0311 27V21C9.14775 21 6.79688 18.6492 6.79688 15.7656H0.796875ZM12.0311 27C18.2285 27 23.2656 21.9629 23.2656 15.7656H17.2656C17.2656 18.6492 14.9148 21 12.0311 21V27ZM23.2656 15.7656C23.2656 12.1444 21.9666 8.39999 19.7194 4.68088L14.584 7.78381C16.4692 10.9037 17.2656 13.5743 17.2656 15.7656H23.2656ZM12.0311 19.5938C9.92321 19.5938 8.20313 17.8738 8.20313 15.7656H2.20313C2.20313 21.1874 6.6094 25.5938 12.0311 25.5938V19.5938ZM8.20313 15.7656C8.20313 12.9856 9.74871 9.86583 11.333 7.48509L6.33783 4.16113C4.60786 6.76086 2.20313 11.1334 2.20313 15.7656H8.20313ZM11.333 7.4851C12.1499 6.25744 12.9784 5.21561 13.6114 4.47288L9.04467 0.581167C8.29884 1.45635 7.31716 2.68944 6.33784 4.16112L11.333 7.4851ZM8.32801 2.52702V6.596H14.328V2.52702H8.32801ZM8.32801 6.596C8.32801 9.88634 11.0001 12.5585 14.2905 12.5585V6.55846C14.2902 6.55846 14.2928 6.55848 14.2971 6.55938C14.3014 6.56025 14.3054 6.56154 14.3088 6.563C14.3153 6.56572 14.3176 6.56811 14.318 6.56847C14.3184 6.56883 14.3208 6.57121 14.3235 6.57764C14.3249 6.58109 14.3262 6.58513 14.3271 6.58933C14.328 6.59372 14.328 6.59628 14.328 6.596H8.32801ZM14.2905 12.5585C16.3069 12.5585 18.0872 11.5526 19.1605 10.0344L14.2614 6.57064C14.2623 6.56927 14.2631 6.56854 14.2637 6.56801C14.2643 6.56745 14.2658 6.56625 14.2686 6.56475C14.2717 6.56313 14.276 6.56132 14.2813 6.55998C14.287 6.55855 14.2906 6.55846 14.2905 6.55846V12.5585ZM14.0614 9.7096C15.3329 12.1039 15.8593 14.123 15.8593 15.7656H21.8593C21.8593 12.8645 20.9418 9.87312 19.3605 6.89549L14.0614 9.7096ZM15.8593 15.7656C15.8593 17.8738 14.1394 19.5938 12.0311 19.5938V25.5938C17.4532 25.5938 21.8593 21.1874 21.8593 15.7656H15.8593Z" fill="#10221C" mask="url(#path-1-inside-1_4070_2212)"/>
<path d="M16.0201 11.8673H13.0077C12.6193 11.8673 12.3045 12.1821 12.3045 12.5703C12.3044 12.9586 12.6193 13.2736 13.0075 13.2736H14.3227L11.3187 16.2774L9.68576 14.6445C9.41128 14.37 8.96597 14.37 8.69149 14.6445L7.09371 16.2421C6.81905 16.5167 6.81905 16.9619 7.09353 17.2365C7.36819 17.5112 7.81332 17.511 8.08798 17.2365L9.18862 16.1361L10.8214 17.769C10.9532 17.9008 11.1321 17.975 11.3187 17.975C11.5051 17.975 11.684 17.9008 11.8158 17.769L15.317 14.268V15.5829C15.317 15.9711 15.6317 16.286 16.0201 16.286C16.4085 16.286 16.7232 15.9711 16.7232 15.5829V12.5704C16.7232 12.1821 16.4085 11.8673 16.0201 11.8673V11.8673Z" fill="#10221C"/>
</g>
<defs>
<clipPath id="clip0_4070_2212">
<rect width="24" height="24" fill="white"/>
</clipPath>
</defs>
</svg>
